<svg xmlns="http://www.w3.org/2000/svg" viewBox="0 0 109.7 14.34"><defs><style>.a{fill:#2588f3;}.b{fill:#5a636d;}.c{fill:#cc9869;}.d{fill:#4e5660;}.e{fill:#a0a0a0;}.f{fill:#828282;}.g{fill:#b2b5b7;}.h{fill:#d8d8d8;}.i{fill:#b7b7b7;}.j{fill:#8e8e8e;}.k{fill:none;}</style></defs><title>logo</title><path class="a" d="M47.76,16.53h-4.5c-.25.51-.53,1-.79,1.55s-.54,1.05-.78,1.56H40.08l6.3-12.19h2.11l2.45,12.19H49.33c-.31-1.56-.57-2.88-.8-4s-.4-2-.56-2.78-.26-1.36-.37-1.83-.15-.84-.22-1.1-.11-.47-.13-.61,0-.27-.07-.37c-.54,1-1.08,2.08-1.6,3.07s-1,2-1.61,3.09h3.49Z" transform="translate(-28.75 -5.33)"/><path class="b" d="M82.44,11c-.36,1.28-1.1,2.07-1.54,4-.06.25-.09.45-.12.58a.32.32,0,0,1-.16.25.22.22,0,0,1-.18,0c-.18-.09-.11-.55-.08-.79a5.24,5.24,0,0,1,.16-.69A9.91,9.91,0,0,1,81,13.23a19,19,0,0,0,1-2.53,5.56,5.56,0,0,0,.12-2.35v0l.12,0a.9.9,0,0,0,.28-.08h0A6,6,0,0,1,82.44,11Z" transform="translate(-28.75 -5.33)"/><path class="a" d="M57.85,8.83c-.33.24-.66.51-1,.77s-.67.5-1,.75l-1,6.46.79.71.78.72h.75l-.22,1.41H55.41l-2.32-2.27,1.22-7.66,3-2.27h1.52l-.25,1.38Zm.26,9.39h1l1-.73c.37-.26.7-.51,1-.73l1,1-2.46,1.85H57.89ZM61.59,7.45l1.69,1.9L62,10.42,60.59,8.83h-1l.21-1.38Z" transform="translate(-28.75 -5.33)"/><path class="a" d="M68.29,19.64H66.2l-2.1-2.29,1.21-7.63,2.81-2.29h2.09L70,8.81h-1.4l-.93.77c-.31.26-.61.51-.92.75l-1,6.39.68.75c.22.26.45.53.68.77h1.4Zm1.17-1.36h1.45c.32-.25.65-.51,1-.77l1-.75,1-6.39-.69-.75a10.21,10.21,0,0,0-.69-.77H70.93l.23-1.38h2.25L75.5,9.76l-1.2,7.62-2.81,2.29H69.24Z" transform="translate(-28.75 -5.33)"/><path class="a" d="M82.61,7.35h1.47l-1.94,12.3H80.67Z" transform="translate(-28.75 -5.33)"/><path class="a" d="M86.64,18.21h6.59L93,19.64H84.86L86.78,7.45h8l-.22,1.41H88.13Zm6.8-5.64L93.19,14H88.27l.24-1.45Z" transform="translate(-28.75 -5.33)"/><path class="a" d="M100.23,8.83c-.33.24-.67.51-1,.77s-.66.5-1,.75l-1,6.46.78.71.79.72h.75l-.23,1.41H97.78l-2.32-2.27,1.22-7.66,3-2.27h1.52L101,8.83Zm.24,9.39h1l1-.73,1-.73,1,1L102,19.65h-1.79ZM104,7.45l1.7,1.9-1.26,1.07L103,8.83h-1l.21-1.38Z" transform="translate(-28.75 -5.33)"/><path class="a" d="M106.79,8.78,107,7.45h9.29l-.21,1.33Zm3.72,10.86H109l1.55-9.88h1.55Z" transform="translate(-28.75 -5.33)"/><path class="a" d="M119.89,19.64h-2.1l-2.09-2.29,1.2-7.63,2.83-2.27h2.09l-.22,1.38h-1.4c-.31.24-.61.51-.92.77l-.93.75-1,6.39.68.75c.23.26.45.52.68.77h1.4Zm1.17-1.36h1.45l1-.77c.33-.26.64-.51,1-.75l1-6.39c-.23-.25-.46-.49-.68-.75s-.46-.53-.7-.77h-1.54l.23-1.38H125l2.1,2.29-1.21,7.62-2.81,2.29h-2.25Z" transform="translate(-28.75 -5.33)"/><path class="a" d="M131.76,13.47h3.12c.3-.26.6-.5.88-.75l.89-.75.26-1.62c-.45-.49-.87-1-1.29-1.5h-4.11l-1.71,10.8h-1.45l1.92-12.18h6.26l1.92,2.25L138,12.6l-2.63,2.24h-.72c.44.78.87,1.58,1.34,2.42l1.35,2.41h-1.61l-2.62-4.8h-1.53Z" transform="translate(-28.75 -5.33)"/><path class="c" d="M81.37,7.9q-2.09,1.5-4.16,3a3.15,3.15,0,0,0-1-1.28v0l4.56-2.48s0,.09.07.14l0,.08a.56.56,0,0,1,0,.08,1.75,1.75,0,0,0,.28.33l.1.07A.27.27,0,0,0,81.37,7.9Z" transform="translate(-28.75 -5.33)"/><path class="d" d="M82.51,15.5c0,.21.06.32,0,.4a.2.2,0,0,1-.2,0c-.15,0-.19-.29-.22-.58a5.91,5.91,0,0,1,0-1.12,14.75,14.75,0,0,1,.23-1.5c.21-1,.32-1.15.42-1.88a8.09,8.09,0,0,0,.07-1.16,6.65,6.65,0,0,0-.22-1.46h0a.88.88,0,0,0,.24-.11A.57.57,0,0,0,82.89,8h0a5.77,5.77,0,0,1,.24,2.7c-.08.47-.3,1.42-.45,2a10.83,10.83,0,0,0-.23,1.47,3.36,3.36,0,0,0,0,.79C82.49,15.17,82.49,15.34,82.51,15.5Z" transform="translate(-28.75 -5.33)"/><path class="a" d="M78.54,7.35H80l-1.94,12.3H76.6Z" transform="translate(-28.75 -5.33)"/><path class="a" d="M31.77,10.14l-1.49,9.51H28.75L30.67,7.47h1.55l3.91,8-.43,2.69Zm6.6-2.69h1.52L38,19.64H36.45Z" transform="translate(-28.75 -5.33)"/><path class="e" d="M83.53,6.89A1.44,1.44,0,0,1,82.89,8a.57.57,0,0,1-.13.08h0a1.15,1.15,0,0,0-.07-.4,1,1,0,0,0-.19-.34.74.74,0,0,0,.23-.52A.84.84,0,0,0,81.87,6,.8.8,0,0,0,81,6.8a.84.84,0,0,0,.85.81h.21a.78.78,0,0,1,.18.34.63.63,0,0,1,0,.34v0l-.12,0a1.22,1.22,0,0,1-.27,0A1.76,1.76,0,0,1,80.9,8h0L80.81,8l-.1-.08a2.57,2.57,0,0,1-.21-.24,1,1,0,0,0-.08-.11l0-.09,0-.07a1.54,1.54,0,0,1-.13-.6A1.56,1.56,0,0,1,81.9,5.33,1.62,1.62,0,0,1,83.53,6.89Z" transform="translate(-28.75 -5.33)"/><path class="d" d="M82.75,8.11h0a.88.88,0,0,1-.24.11.9.9,0,0,1-.28.08v0a.63.63,0,0,0,0-.34.78.78,0,0,0-.18-.34h0a1,1,0,0,0,.45-.23,1,1,0,0,1,.19.34A1.15,1.15,0,0,1,82.75,8.11Z" transform="translate(-28.75 -5.33)"/><path class="f" d="M77.65,10.78l0,0a3.89,3.89,0,0,1-.52,3.73,5,5,0,0,0-.39-1.41A4.71,4.71,0,0,0,76,11.92h0l-6.63,2.87,5.26-4.26s0,0,0-.06h0a5.64,5.64,0,0,0-1.1-1.28,3.38,3.38,0,0,0-1.06-.58l.28,0a8.25,8.25,0,0,1,1.07.05,6.87,6.87,0,0,1,1.84.44,4.88,4.88,0,0,1,.84.45A3.48,3.48,0,0,1,77.65,10.78Z" transform="translate(-28.75 -5.33)"/><path class="g" d="M77.15,14.54c-.14.25-.28.46-.39.63a.17.17,0,0,1-.29,0l-1.08-1.93L76,12s0-.08,0-.09a4.71,4.71,0,0,1,.75,1.21A5,5,0,0,1,77.15,14.54Z" transform="translate(-28.75 -5.33)"/><path class="h" d="M76,11.92S76,12,76,12l-.61,1.23h0L62.58,19l.29-.17,6.48-4L76,11.92Z" transform="translate(-28.75 -5.33)"/><path class="i" d="M74.63,10.47s0,0,0,.06l-5.26,4.26-6.48,4-.29.17,10.6-8.53h1.45Z" transform="translate(-28.75 -5.33)"/><path class="g" d="M75,10.12Z" transform="translate(-28.75 -5.33)"/><path class="j" d="M74.62,10.46H73.18L71.65,8.94a.15.15,0,0,1,.1-.25c.2,0,.44-.07.71-.09a3.38,3.38,0,0,1,1.06.58A5.64,5.64,0,0,1,74.62,10.46Z" transform="translate(-28.75 -5.33)"/><path class="k" d="M75.39,13.24l1.08,1.93a.17.17,0,0,0,.29,0c.11-.17.25-.38.39-.63a3.89,3.89,0,0,0,.52-3.73l0,0a3.48,3.48,0,0,0-1.16-1.26,4.88,4.88,0,0,0-.84-.45,6.87,6.87,0,0,0-1.84-.44,8.25,8.25,0,0,0-1.07-.05l-.28,0c-.27,0-.51.06-.71.09a.15.15,0,0,0-.1.25l1.53,1.51L62.58,19l12.81-5.75Z" transform="translate(-28.75 -5.33)"/><path class="k" d="M69.35,14.79,76,11.92h0S76,12,76,12l-.61,1.23a0,0,0,0,1,0,0" transform="translate(-28.75 -5.33)"/><path class="k" d="M73.2,10.46h1.42" transform="translate(-28.75 -5.33)"/><path class="k" d="M69.35,14.79l5.26-4.26s0,0,0-.06h0" transform="translate(-28.75 -5.33)"/><path class="k" d="M72.46,8.6a3.38,3.38,0,0,1,1.06.58,5.64,5.64,0,0,1,1.1,1.28h0" transform="translate(-28.75 -5.33)"/><path class="k" d="M76.9,13.78a4.21,4.21,0,0,0-.49-1.08,4.69,4.69,0,0,0-.75-.87h0" transform="translate(-28.75 -5.33)"/><path class="k" d="M82.12,8.33a1.22,1.22,0,0,1-.27,0A1.76,1.76,0,0,1,80.9,8L80.81,8a.39.39,0,0,1-.1-.08,1.64,1.64,0,0,1-.29-.35l0-.09,0-.07a1.54,1.54,0,0,1-.13-.6A1.56,1.56,0,0,1,81.9,5.33a1.62,1.62,0,0,1,1.63,1.56A1.44,1.44,0,0,1,82.89,8a.57.57,0,0,1-.13.08.88.88,0,0,1-.24.11.9.9,0,0,1-.28.08Z" transform="translate(-28.75 -5.33)"/><path class="k" d="M82.9,8.05a5.77,5.77,0,0,1,.24,2.7c-.08.47-.3,1.42-.45,2a10.83,10.83,0,0,0-.23,1.47,3.36,3.36,0,0,0,0,.79c0,.16,0,.33,0,.49s.06.32,0,.4a.2.2,0,0,1-.2,0c-.15,0-.19-.29-.22-.58a5.91,5.91,0,0,1,0-1.12,14.75,14.75,0,0,1,.23-1.5c.21-1,.32-1.15.42-1.88a8.09,8.09,0,0,0,.07-1.16,6.65,6.65,0,0,0-.22-1.46" transform="translate(-28.75 -5.33)"/></svg>