<?xml version="1.0" encoding="utf-8"?>
<!-- Generator: Adobe Illustrator 21.0.0, SVG Export Plug-In . SVG Version: 6.00 Build 0)  -->
<svg version="1.1" id="图层_1" xmlns="http://www.w3.org/2000/svg" xmlns:xlink="http://www.w3.org/1999/xlink" x="0px" y="0px"
	 viewBox="0 0 654 113.4" style="enable-background:new 0 0 654 113.4;" xml:space="preserve">
<style type="text/css">
	.st0{fill:#2196F3;}
</style>
<g id="XMLID_2_">
</g>
<g id="XMLID_25_">
</g>
<g id="XMLID_26_">
</g>
<g id="XMLID_27_">
</g>
<g id="XMLID_28_">
</g>
<g id="XMLID_29_">
</g>
<g>
	<path class="st0" d="M30.2,37.5l-8.5,54.5h-8.8l11-69.8h8.9L55.2,68l-2.5,15.4L30.2,37.5z M68,22.1h8.7l-11,69.8H57L68,22.1z"/>
	<path class="st0" d="M121.8,74.1H96C94.6,77,93,80,91.5,83c-1.6,3-3.1,6-4.5,8.9h-9.2l36.1-69.8H126l14,69.8h-9.2
		c-1.8-8.9-3.3-16.5-4.6-22.8c-1.3-6.3-2.3-11.6-3.2-15.9c-0.9-4.3-1.5-7.8-2.1-10.5c-0.5-2.6-0.9-4.8-1.3-6.3
		c-0.3-1.6-0.6-2.7-0.7-3.5c-0.2-0.8-0.3-1.5-0.4-2.1c-3.1,6-6.2,11.9-9.2,17.6c-3,5.7-6,11.6-9.2,17.7h20L121.8,74.1z"/>
	<path class="st0" d="M179.6,30c-1.9,1.4-3.8,2.9-5.7,4.4c-1.9,1.5-3.8,2.9-5.7,4.3l-5.9,37c1.5,1.4,3,2.7,4.5,4.1s3,2.7,4.5,4.1
		h4.3l-1.3,8.1h-8.7l-13.3-13l7-43.9l17.4-13h8.7L184,30H179.6z M181.1,83.8h5.8c1.8-1.3,3.8-2.7,5.8-4.2c2.1-1.5,4-2.9,5.7-4.2
		l5.7,5.9L190,91.9h-10.2L181.1,83.8z M201,22.1l9.7,10.9l-7.2,6.1l-8.2-9.1h-5.7l1.2-7.9H201z"/>
	<path class="st0" d="M239.4,91.9h-12l-12-13.1l6.9-43.7l16.1-13.1h12l-1.3,7.9h-8c-1.8,1.4-3.5,2.9-5.3,4.4
		c-1.8,1.5-3.5,2.9-5.3,4.3l-5.8,36.6c1.3,1.4,2.6,2.8,3.9,4.3c1.3,1.5,2.6,3,3.9,4.4h8L239.4,91.9z M246.1,84.1h8.3
		c1.8-1.4,3.7-2.9,5.5-4.4c1.9-1.5,3.7-2.9,5.5-4.3l5.8-36.6c-1.3-1.4-2.6-2.8-3.9-4.3c-1.3-1.5-2.6-3-4-4.4h-8.8l1.3-7.9h12.9
		l12,13.1l-6.9,43.7l-16.1,13.1h-12.9L246.1,84.1z"/>
	<path class="st0" d="M298.1,21.5h8.4l-11.1,70.5H287L298.1,21.5z"/>
	<path class="st0" d="M321.4,21.5h8.4l-11.1,70.5h-8.4L321.4,21.5z"/>
	<path class="st0" d="M344.5,83.7h37.7l-1.3,8.2h-46.6l11-69.8h46l-1.3,8.1H353L344.5,83.7z M383.4,51.4l-1.4,8.3h-28.2l1.4-8.3
		H383.4z"/>
	<path class="st0" d="M422.3,30c-1.9,1.4-3.8,2.9-5.7,4.4c-1.9,1.5-3.8,2.9-5.7,4.3l-5.9,37c1.5,1.4,3,2.7,4.5,4.1
		c1.5,1.3,3,2.7,4.5,4.1h4.3l-1.3,8.1h-8.7l-13.3-13l7-43.9l17.4-13h8.7l-1.2,7.9H422.3z M423.7,83.8h5.8c1.8-1.3,3.8-2.7,5.8-4.2
		c2.1-1.5,4-2.9,5.7-4.2l5.7,5.9l-14.1,10.7h-10.2L423.7,83.8z M443.7,22.1l9.7,10.9l-7.2,6.1L438,30h-5.7l1.2-7.9H443.7z"/>
	<path class="st0" d="M459.9,29.7l1.2-7.6h53.2l-1.2,7.6H459.9z M481.2,91.9h-8.9l8.9-56.6h8.9L481.2,91.9z"/>
	<path class="st0" d="M534.9,91.9h-12l-12-13.1l6.9-43.7L534,22.1h12l-1.3,7.9h-8c-1.8,1.4-3.5,2.9-5.3,4.4
		c-1.8,1.5-3.5,2.9-5.3,4.3l-5.8,36.6c1.3,1.4,2.6,2.8,3.9,4.3c1.3,1.5,2.6,3,3.9,4.4h8L534.9,91.9z M541.6,84.1h8.3
		c1.8-1.4,3.7-2.9,5.5-4.4c1.9-1.5,3.7-2.9,5.5-4.3l5.8-36.6c-1.3-1.4-2.6-2.8-3.9-4.3c-1.3-1.5-2.6-3-4-4.4h-8.8l1.3-7.9h12.9
		l12,13.1l-6.9,43.7l-16.1,13.1h-12.9L541.6,84.1z"/>
	<path class="st0" d="M602.9,56.6h17.9c1.7-1.5,3.4-2.9,5-4.3c1.6-1.4,3.3-2.8,5.1-4.3l1.5-9.3c-2.6-2.8-5-5.7-7.4-8.6h-23.5
		l-9.8,61.9h-8.3l11-69.8h35.8l11,12.9l-2.6,16.5l-15.1,12.8l-4.1,0c2.5,4.5,5,9.1,7.7,13.9c2.6,4.7,5.2,9.3,7.7,13.8h-9.2l-15-27.5
		h-8.8L602.9,56.6z"/>
</g>
</svg>
